<svg width="64" height="64" viewBox="0 0 64 64" fill="none" xmlns="http://www.w3.org/2000/svg">
<rect width="64" height="64" fill="#E6FE51"/>
<g clip-path="url(#clip0_410_12053)">
<path d="M33.3373 33.3213H36.0039V30.6554H33.3373V33.3213Z" fill="#1A1A1A"/>
<path d="M30.6655 30.6631H33.332V27.9972H30.6655V30.6631Z" fill="#1A1A1A"/>
<path d="M28.0014 33.3286H30.668V30.6628H28.0014V33.3286Z" fill="#1A1A1A"/>
<path d="M30.6655 35.9951H33.332V33.3292H30.6655V35.9951Z" fill="#1A1A1A"/>
<path d="M25.3334 27.9966H28V25.3307H25.3334V27.9966Z" fill="#1A1A1A"/>
<path d="M36.0014 27.9897H38.668V25.3239H36.0014V27.9897Z" fill="#1A1A1A"/>
<path d="M38.6694 41.334H41.3359V38.6681H38.6694V41.334Z" fill="#1A1A1A"/>
<path d="M22.6655 41.334H25.332V38.6681H22.6655V41.334Z" fill="#1A1A1A"/>
<path d="M38.6694 33.3213H41.3359V30.6554H38.6694V33.3213Z" fill="#1A1A1A"/>
<path d="M30.6655 25.3311H33.332V22.6652H30.6655V25.3311Z" fill="#1A1A1A"/>
<path d="M30.6655 22.6655H33.332V19.9997H30.6655V22.6655Z" fill="#1A1A1A"/>
<path d="M41.3334 33.3213H44V30.6554H41.3334V33.3213Z" fill="#1A1A1A"/>
<path d="M30.6655 41.334H33.332V38.6681H30.6655V41.334Z" fill="#1A1A1A"/>
<path d="M30.6655 44H33.332V41.3341H30.6655V44Z" fill="#1A1A1A"/>
<path d="M22.6655 33.3213H25.332V30.6554H22.6655V33.3213Z" fill="#1A1A1A"/>
<path d="M20.0014 33.3286H22.668V30.6628H20.0014V33.3286Z" fill="#1A1A1A"/>
<path d="M36.0014 38.6606H38.668V35.9948H36.0014V38.6606Z" fill="#1A1A1A"/>
<path d="M38.6694 25.3311H41.3359V22.6652H38.6694V25.3311Z" fill="#1A1A1A"/>
<path d="M25.3334 38.6738H28V36.0079H25.3334V38.6738Z" fill="#1A1A1A"/>
<path d="M22.6655 25.3311H25.332V22.6652H22.6655V25.3311Z" fill="#1A1A1A"/>
</g>
<defs>
<clipPath id="clip0_410_12053">
<rect width="24" height="24" fill="white" transform="translate(20 20)"/>
</clipPath>
</defs>
</svg>
