<svg width="32" height="32" viewBox="0 0 32 32" fill="none" xmlns="http://www.w3.org/2000/svg">
<g clip-path="url(#clip0_415_13247)">
<path d="M17.7825 17.7617H21.3379V14.2072H17.7825V17.7617Z" fill="#1A1A1A"/>
<path d="M14.22 14.2173H17.7754V10.6628H14.22V14.2173Z" fill="#1A1A1A"/>
<path d="M10.6692 17.7715H14.2246V14.217H10.6692V17.7715Z" fill="#1A1A1A"/>
<path d="M14.22 21.3267H17.7754V17.7722H14.22V21.3267Z" fill="#1A1A1A"/>
<path d="M7.11058 10.6621H10.666V7.1076H7.11058V10.6621Z" fill="#1A1A1A"/>
<path d="M21.3352 10.6528H24.8906V7.09832H21.3352V10.6528Z" fill="#1A1A1A"/>
<path d="M24.8918 28.4453H28.4473V24.8908H24.8918V28.4453Z" fill="#1A1A1A"/>
<path d="M3.55397 28.4453H7.10938V24.8908H3.55397L3.55397 28.4453Z" fill="#1A1A1A"/>
<path d="M24.8918 17.7617H28.4473V14.2072H24.8918V17.7617Z" fill="#1A1A1A"/>
<path d="M14.22 7.10791H17.7754V3.5534L14.22 3.5534V7.10791Z" fill="#1A1A1A"/>
<path d="M14.22 3.5542L17.7754 3.5542V-0.000277758L14.22 -0.000277758V3.5542Z" fill="#1A1A1A"/>
<path d="M28.4446 17.7617H32V14.2072H28.4446V17.7617Z" fill="#1A1A1A"/>
<path d="M14.22 28.4453H17.7754V24.8908H14.22V28.4453Z" fill="#1A1A1A"/>
<path d="M14.22 32H17.7754V28.4455H14.22V32Z" fill="#1A1A1A"/>
<path d="M3.55397 17.7617H7.10938V14.2072H3.55397L3.55397 17.7617Z" fill="#1A1A1A"/>
<path d="M0.00120091 17.7715H3.55664L3.55664 14.217H0.00120091L0.00120091 17.7715Z" fill="#1A1A1A"/>
<path d="M21.3352 24.8809H24.8906V21.3263H21.3352V24.8809Z" fill="#1A1A1A"/>
<path d="M24.8918 7.10791H28.4473V3.5534L24.8918 3.5534V7.10791Z" fill="#1A1A1A"/>
<path d="M7.11058 24.8984H10.666V21.3439H7.11058V24.8984Z" fill="#1A1A1A"/>
<path d="M3.55397 7.10791H7.10938V3.5534L3.55397 3.5534L3.55397 7.10791Z" fill="#1A1A1A"/>
</g>
<defs>
<clipPath id="clip0_415_13247">
<rect width="32" height="32" fill="white"/>
</clipPath>
</defs>
</svg>
