<svg width="40" height="40" viewBox="0 0 40 40" fill="none" xmlns="http://www.w3.org/2000/svg">
<g clip-path="url(#clip0_417_15678)">
<circle cx="20" cy="20" r="20" fill="#E6FE51"/>
<g clip-path="url(#clip1_417_15678)">
<path d="M18.1267 25.9769C17.974 26.1305 17.7656 26.2162 17.5491 26.2162C17.3327 26.2162 17.1243 26.1305 16.9716 25.9769L12.359 21.3636C11.8803 20.8849 11.8803 20.1087 12.359 19.6309L12.9366 19.0532C13.4154 18.5745 14.1907 18.5745 14.6694 19.0532L17.5491 21.9331L25.3306 14.1515C25.8094 13.6728 26.5855 13.6728 27.0634 14.1515L27.641 14.7292C28.1196 15.2079 28.1196 15.9839 27.641 16.4619L18.1267 25.9769Z" fill="#1A1A1A"/>
</g>
</g>
<defs>
<clipPath id="clip0_417_15678">
<rect width="40" height="40" fill="white"/>
</clipPath>
<clipPath id="clip1_417_15678">
<rect width="16" height="16" fill="white" transform="translate(12 12)"/>
</clipPath>
</defs>
</svg>
