<svg width="40" height="40" viewBox="0 0 40 40" fill="none" xmlns="http://www.w3.org/2000/svg">
<g clip-path="url(#clip0_417_15684)">
<circle cx="20" cy="20" r="20" fill="#F2F2F2"/>
<g clip-path="url(#clip1_417_15684)">
<path d="M22.64 20.0005L27.5898 15.0507C28.1367 14.5038 28.1367 13.6171 27.5898 13.0711L26.9299 12.4112C26.3828 11.8641 25.4962 11.8641 24.9501 12.4112L20.0005 17.3608L15.0507 12.4102C14.5038 11.8633 13.6171 11.8633 13.0711 12.4102L12.4102 13.07C11.8633 13.6171 11.8633 14.5038 12.4102 15.0498L17.3608 20.0005L12.4112 24.9501C11.8641 25.4972 11.8641 26.3839 12.4112 26.9299L13.0711 27.5898C13.618 28.1367 14.5046 28.1367 15.0507 27.5898L20.0005 22.64L24.9501 27.5898C25.4972 28.1367 26.3839 28.1367 26.9299 27.5898L27.5898 26.9299C28.1367 26.3828 28.1367 25.4962 27.5898 24.9501L22.64 20.0005Z" fill="#1A1A1A"/>
</g>
</g>
<defs>
<clipPath id="clip0_417_15684">
<rect width="40" height="40" fill="white"/>
</clipPath>
<clipPath id="clip1_417_15684">
<rect width="16" height="16" fill="white" transform="translate(12 12)"/>
</clipPath>
</defs>
</svg>
