<svg width="32" height="20" viewBox="0 0 32 20" fill="none" xmlns="http://www.w3.org/2000/svg">
<path d="M30.5274 0.184297V4.8286C28.272 4.7254 26.733 4.95761 25.9104 5.52525C25.1144 6.09288 24.7164 7.22816 24.7164 8.93107C27.1841 8.90527 29.0149 9.331 30.209 10.2083C31.403 11.0597 32 12.4401 32 14.3494C32 16.3362 31.4163 17.7811 30.2488 18.6841C29.1078 19.5614 27.3566 20 24.995 20C22.4212 20 20.5373 19.4711 19.3433 18.4132C18.1493 17.3553 17.5522 15.6137 17.5522 13.1884C17.5522 10.4534 17.8574 8.15702 18.4677 6.2993C19.1045 4.41578 20.0199 3.00958 21.2139 2.08072C22.408 1.12606 23.7612 0.506818 25.2736 0.223002C26.7861 -0.060818 28.5373 -0.0737195 30.5274 0.184297ZM12.9751 0.223002V4.86731C10.7197 4.7641 9.18076 4.99631 8.35821 5.56395C7.56219 6.13159 7.16418 7.26686 7.16418 8.96977C9.63184 8.94397 11.4627 9.3697 12.6567 10.247C13.8507 11.0984 14.4478 12.4788 14.4478 14.3881C14.4478 16.3749 13.864 17.8069 12.6965 18.6841C11.5556 19.5614 9.80431 20 7.44279 20C4.86899 20 2.98507 19.484 1.79104 18.4519C0.597015 17.394 0 15.6524 0 13.2271C0 10.4921 0.305141 8.19572 0.915423 6.338C1.55224 4.45448 2.46766 3.04829 3.66169 2.11943C4.85572 1.16476 6.20895 0.545521 7.72139 0.261701C9.23383 -0.0221152 10.9851 -0.0350151 12.9751 0.223002Z" fill="#D9EA4C"/>
</svg>
