<svg width="18" height="18" viewBox="0 0 18 18" fill="none" xmlns="http://www.w3.org/2000/svg">
<path d="M9 17C13.4183 17 17 13.4183 17 9C17 4.58172 13.4183 1 9 1C4.58172 1 1 4.58172 1 9C1 13.4183 4.58172 17 9 17Z" stroke="#D8D8D8" stroke-linecap="round" stroke-linejoin="round"/>
<path d="M9 14.3335C9.55228 14.3335 10 13.8858 10 13.3335C10 12.7812 9.55228 12.3335 9 12.3335C8.44772 12.3335 8 12.7812 8 13.3335C8 13.8858 8.44772 14.3335 9 14.3335Z" fill="#D8D8D8"/>
<path d="M8.99935 10.3333V9.66667C9.46084 9.66667 9.91196 9.52982 10.2957 9.27343C10.6794 9.01704 10.9785 8.65262 11.1551 8.22626C11.3317 7.7999 11.3779 7.33075 11.2878 6.87812C11.1978 6.4255 10.9756 6.00974 10.6493 5.68342C10.3229 5.3571 9.90718 5.13487 9.45456 5.04484C9.00194 4.9548 8.53278 5.00101 8.10642 5.17762C7.68006 5.35422 7.31564 5.65329 7.05925 6.037C6.80286 6.42072 6.66602 6.87184 6.66602 7.33333" stroke="#D8D8D8" stroke-linecap="round" stroke-linejoin="round"/>
</svg>
