<svg width="24" height="24" viewBox="0 0 24 24" fill="none" xmlns="http://www.w3.org/2000/svg">
<g clip-path="url(#clip0_935_13528)">
<path d="M13.3373 13.3213H16.0039V10.6554H13.3373V13.3213Z" fill="#1A1A1A"/>
<path d="M10.6655 10.6631H13.332V7.9972H10.6655V10.6631Z" fill="#1A1A1A"/>
<path d="M8.00139 13.3286H10.668V10.6628H8.00139V13.3286Z" fill="#1A1A1A"/>
<path d="M10.6655 15.9951H13.332V13.3292H10.6655V15.9951Z" fill="#1A1A1A"/>
<path d="M5.33342 7.99658H8V5.3307H5.33342V7.99658Z" fill="#1A1A1A"/>
<path d="M16.0014 7.98975H18.668V5.32386H16.0014V7.98975Z" fill="#1A1A1A"/>
<path d="M18.6694 21.334H21.3359V18.6681H18.6694V21.334Z" fill="#1A1A1A"/>
<path d="M2.66548 21.334H5.33203V18.6681H2.66548L2.66548 21.334Z" fill="#1A1A1A"/>
<path d="M18.6694 13.3213H21.3359V10.6554H18.6694V13.3213Z" fill="#1A1A1A"/>
<path d="M10.6655 5.33105H13.332V2.66517L10.6655 2.66517V5.33105Z" fill="#1A1A1A"/>
<path d="M10.6655 2.66553L13.332 2.66553V-0.000330448L10.6655 -0.000330448V2.66553Z" fill="#1A1A1A"/>
<path d="M21.3334 13.3213H24V10.6554H21.3334V13.3213Z" fill="#1A1A1A"/>
<path d="M10.6655 21.334H13.332V18.6681H10.6655V21.334Z" fill="#1A1A1A"/>
<path d="M10.6655 24H13.332V21.3341H10.6655V24Z" fill="#1A1A1A"/>
<path d="M2.66548 13.3213H5.33203V10.6554H2.66548L2.66548 13.3213Z" fill="#1A1A1A"/>
<path d="M0.00138903 13.3286H2.66797L2.66797 10.6628H0.00138903L0.00138903 13.3286Z" fill="#1A1A1A"/>
<path d="M16.0014 18.6606H18.668V15.9948H16.0014V18.6606Z" fill="#1A1A1A"/>
<path d="M18.6694 5.33105H21.3359V2.66517L18.6694 2.66517V5.33105Z" fill="#1A1A1A"/>
<path d="M5.33342 18.6738H8V16.0079H5.33342V18.6738Z" fill="#1A1A1A"/>
<path d="M2.66548 5.33105H5.33203V2.66517L2.66548 2.66517L2.66548 5.33105Z" fill="#1A1A1A"/>
</g>
<defs>
<clipPath id="clip0_935_13528">
<rect width="24" height="24" fill="white"/>
</clipPath>
</defs>
</svg>
