<svg width="165" height="16" viewBox="0 0 165 16" fill="none" xmlns="http://www.w3.org/2000/svg">
<path d="M55.3377 5.80007V3.88477H42.9446V6.05984H50.9941L42.2852 13.7576V15.6522H55.7928V13.4788H46.8108L55.3377 5.80007Z" fill="#1A1A1A"/>
<path d="M72.1429 11.5059C72.1401 11.5198 72.1356 11.5325 72.1328 11.5456H72.1429V11.5059Z" fill="#1A1A1A"/>
<path d="M71.3094 6.3488C70.7106 5.43836 69.8043 4.71336 68.7158 4.27382C66.0546 3.30582 63.0645 3.30183 60.3999 4.2627C59.2799 4.70487 58.3368 5.43155 57.6926 6.3488C57.0366 7.32352 56.7059 8.44019 56.7379 9.57169V9.73057C56.696 10.9167 57.0262 12.0902 57.6926 13.1231C58.3317 14.0562 59.2746 14.8002 60.3999 15.2592C61.6768 15.7711 63.0691 16.0231 64.4727 15.9964C65.8359 16.0259 67.1935 15.8333 68.4766 15.4284C69.4699 15.1203 70.3474 14.5783 71.0128 13.8619C71.5983 13.1835 71.9821 12.3879 72.1296 11.547H68.8177V11.5275C68.7419 11.8574 68.5871 12.1693 68.3635 12.4428C68.1399 12.7162 67.8526 12.9448 67.5206 13.1135C66.601 13.5493 65.5617 13.7531 64.518 13.7022C63.6995 13.7214 62.8867 13.578 62.1404 13.2827C61.4865 13.0091 60.9546 12.553 60.6277 11.9859C60.3521 11.5066 60.1851 10.985 60.1359 10.4499H72.1826V9.55103C72.2138 8.43521 71.9128 7.33151 71.3094 6.3488ZM60.6282 7.5261C60.9632 6.97136 61.4938 6.52659 62.1408 6.25823C62.8873 5.9635 63.7001 5.82065 64.5185 5.84038C65.3623 5.82044 66.2008 5.96308 66.9749 6.25823C67.6076 6.49794 68.1345 6.91119 68.4766 7.43594C68.7116 7.81416 68.8652 8.22713 68.9295 8.65415H60.2025C60.2747 8.26059 60.4184 7.87973 60.6282 7.5261Z" fill="#1A1A1A"/>
<path d="M122.866 11.502C122.866 11.5159 122.858 11.5286 122.855 11.5417H122.866V11.502Z" fill="#1A1A1A"/>
<path d="M122.036 6.34488C121.437 5.43488 120.531 4.71011 119.443 4.2703C116.782 3.30179 113.791 3.29779 111.127 4.25918C110.007 4.70133 109.064 5.42784 108.419 6.34488C107.763 7.31985 107.433 8.43658 107.464 9.56817V9.72705C107.423 10.9133 107.753 12.0869 108.419 13.1199C109.058 14.0529 110.002 14.7967 111.127 15.2557C112.404 15.7678 113.796 16.0198 115.199 15.9929C116.563 16.0225 117.92 15.83 119.204 15.4253C120.197 15.1169 121.074 14.575 121.74 13.8587C122.325 13.1804 122.709 12.3848 122.856 11.5438H119.544V11.5244C119.468 11.8538 119.313 12.1652 119.089 12.4381C118.866 12.711 118.579 12.9392 118.247 13.1076C117.327 13.5438 116.288 13.7477 115.244 13.6967C114.426 13.716 113.613 13.5726 112.867 13.2772C112.213 13.0034 111.681 12.5472 111.354 11.98C111.079 11.5013 110.913 10.9805 110.865 10.4464H122.912V9.54752C122.942 8.43141 122.64 7.32764 122.036 6.34488ZM111.355 7.52258C111.69 6.96773 112.221 6.52293 112.868 6.25472C113.614 5.95995 114.427 5.8171 115.245 5.83686C116.089 5.81693 116.928 5.95957 117.702 6.25472C118.335 6.49442 118.862 6.90767 119.204 7.43242C119.438 7.81067 119.592 8.22344 119.657 8.65024H110.929C111.001 8.25678 111.145 7.87602 111.355 7.52258Z" fill="#1A1A1A"/>
<path d="M100.126 12.9994L100.013 13.4979H99.9669L99.7848 12.9994L96.5322 3.88086H92.6424L89.3441 12.9994L89.162 13.4979H89.1158L89.0248 12.9994L85.9085 3.88086H82.3828L86.8867 15.6527H91.0727L94.4395 6.47458L94.5305 6.15523H94.5753L94.6663 6.47458L98.0562 15.6527H102.265L106.769 3.88086H103.242L100.126 12.9994Z" fill="#1A1A1A"/>
<path d="M152.405 3.75953H148.637L144.777 8.25387H141.491V0.234375H138.184V15.6478H141.491V10.4691H144.709L148.958 15.6478H152.841L147.511 9.38112L152.405 3.75953Z" fill="#1A1A1A"/>
<path d="M20.8821 3.88574H17.5625V15.6516H20.8821V3.88574Z" fill="#1A1A1A"/>
<path d="M20.8821 0H17.5625V2.45192H20.8821V0Z" fill="#1A1A1A"/>
<path d="M3.68375 9.20851H13.846V6.91428H3.68375V3.32596H14.7563V0.83313H0V15.6491H14.8921V13.1762H3.68375V9.20851Z" fill="#1A1A1A"/>
<path d="M78.3139 12.1184V0.238464H75.0078V12.0282C75.0078 14.0289 77.2269 15.6522 79.9673 15.6522H82.0334V13.2051H79.9673C79.0548 13.2051 78.3139 12.7193 78.3139 12.1184Z" fill="#1A1A1A"/>
<path d="M33.7539 3.53516H33.676C32.3441 3.53516 30.9094 3.61897 29.5571 4.30692C28.8835 4.60861 28.3141 5.06264 27.9077 5.62205C27.7623 5.88659 27.3905 6.64326 27.3905 6.64326L27.015 6.50702L27.7007 5.13429C27.8257 4.90119 27.9086 4.6525 27.9466 4.39708C27.9593 4.28388 27.9724 4.15876 27.9724 4.04556V3.87675H24.6211V15.6518H27.9453V10.2407C27.9366 9.5197 28.1134 8.80626 28.4624 8.15341C28.8071 7.50394 29.3541 6.95315 30.0403 6.56461C30.8318 6.13695 31.7497 5.92387 32.6788 5.95213C33.998 5.95213 34.9812 6.25837 35.6406 6.85933C36.2873 7.4607 36.6107 8.37942 36.6107 9.60479V15.6518H39.909V9.26518C39.909 7.32525 39.3787 5.8846 38.2923 4.94323C37.2058 4.00187 35.6941 3.53516 33.7539 3.53516Z" fill="#1A1A1A"/>
<path d="M130.658 4.30789C129.999 4.61269 129.438 5.05864 129.028 5.60435C129.028 5.61905 129.011 5.61905 129.011 5.63414C128.875 5.88716 128.501 6.6474 128.501 6.6474L128.122 6.51434L128.802 5.1436C128.914 4.92487 128.994 4.69449 129.039 4.45803C129.053 4.44061 129.059 4.41947 129.057 4.39845C129.057 4.29399 129.073 4.16013 129.073 4.05566V3.87692H125.727V15.6472H129.057V10.2385C129.054 10.1141 129.059 9.98972 129.073 9.86592C129.11 9.27223 129.277 8.69038 129.566 8.1524C129.913 7.5062 130.461 6.95876 131.146 6.57273C131.935 6.14313 132.852 5.93037 133.779 5.96183C134.531 5.97365 135.281 6.03673 136.022 6.1505V3.69699C135.533 3.59254 135.031 3.54249 134.527 3.54804C133.184 3.49363 131.848 3.75601 130.658 4.30789Z" fill="#1A1A1A"/>
<path d="M159.716 8.54688H157.074V10.8637H159.716V8.54688Z" fill="#1A1A1A"/>
<path d="M162.357 10.8643H159.715V13.1811H162.357V10.8643Z" fill="#1A1A1A"/>
<path d="M165.001 13.1816H162.359V15.4985H165.001V13.1816Z" fill="#1A1A1A"/>
<path d="M162.357 6.23047H159.715V8.54734H162.357V6.23047Z" fill="#1A1A1A"/>
<path d="M165.001 3.91309H162.359V6.22996H165.001V3.91309Z" fill="#1A1A1A"/>
</svg>
